<mxfile host="app.diagrams.net" agent="Mozilla/5.0 (X11; Linux x86_64; rv:140.0) Gecko/20100101 Firefox/140.0" version="27.2.0">
  <diagram name="Page-1" id="Dc-mUwGP-GDSX1sPWJ-V">
    <mxGraphModel dx="1188" dy="627" grid="1" gridSize="10" guides="1" tooltips="1" connect="1" arrows="1" fold="1" page="1" pageScale="1" pageWidth="827" pageHeight="1169" math="0" shadow="0">
      <root>
        <mxCell id="0" />
        <mxCell id="1" parent="0" />
        <mxCell id="BVo0kn1WtjxD0ysKhv9Q-6" value="" style="rounded=0;whiteSpace=wrap;html=1;direction=south;" vertex="1" parent="1">
          <mxGeometry x="340" y="110" width="80" height="190" as="geometry" />
        </mxCell>
        <mxCell id="BVo0kn1WtjxD0ysKhv9Q-3" value="" style="rounded=0;whiteSpace=wrap;html=1;direction=south;" vertex="1" parent="1">
          <mxGeometry x="340" y="380" width="80" height="190" as="geometry" />
        </mxCell>
        <mxCell id="Ih7WWjUxtGD7TBrJaObF-1" value="" style="whiteSpace=wrap;html=1;aspect=fixed;align=center;" parent="1" vertex="1">
          <mxGeometry x="340" y="300" width="80" height="80" as="geometry" />
        </mxCell>
        <mxCell id="Ih7WWjUxtGD7TBrJaObF-3" value="" style="rounded=0;whiteSpace=wrap;html=1;" parent="1" vertex="1">
          <mxGeometry x="420" y="300" width="190" height="80" as="geometry" />
        </mxCell>
        <mxCell id="Ih7WWjUxtGD7TBrJaObF-4" value="" style="rounded=0;whiteSpace=wrap;html=1;" parent="1" vertex="1">
          <mxGeometry x="150" y="300" width="190" height="80" as="geometry" />
        </mxCell>
        <mxCell id="Ih7WWjUxtGD7TBrJaObF-7" value="" style="endArrow=open;dashed=1;html=1;dashPattern=1 3;strokeWidth=2;rounded=0;endFill=0;" parent="1" edge="1">
          <mxGeometry width="50" height="50" relative="1" as="geometry">
            <mxPoint x="120" y="340" as="sourcePoint" />
            <mxPoint x="640" y="340" as="targetPoint" />
          </mxGeometry>
        </mxCell>
        <mxCell id="Ih7WWjUxtGD7TBrJaObF-10" value="&lt;b style=&quot;color: rgba(0, 0, 0, 0);&quot;&gt;&lt;span style=&quot;color: light-dark(rgb(0, 0, 0), rgb(0, 204, 0));&quot;&gt;0&lt;/span&gt;&lt;/b&gt;" style="text;html=1;align=center;verticalAlign=middle;resizable=0;points=[];autosize=1;strokeColor=none;fillColor=none;" parent="1" vertex="1">
          <mxGeometry x="356" y="336" width="30" height="30" as="geometry" />
        </mxCell>
        <mxCell id="Ih7WWjUxtGD7TBrJaObF-12" value="" style="ellipse;whiteSpace=wrap;html=1;aspect=fixed;fillColor=#60a917;fontColor=#ffffff;strokeColor=#2D7600;" parent="1" vertex="1">
          <mxGeometry x="335" y="334" width="10" height="10" as="geometry" />
        </mxCell>
        <mxCell id="Ih7WWjUxtGD7TBrJaObF-8" value="" style="endArrow=open;dashed=1;html=1;dashPattern=1 3;strokeWidth=2;rounded=0;endFill=0;" parent="1" edge="1">
          <mxGeometry width="50" height="50" relative="1" as="geometry">
            <mxPoint x="380" y="600" as="sourcePoint" />
            <mxPoint x="380" y="80" as="targetPoint" />
          </mxGeometry>
        </mxCell>
        <mxCell id="Ih7WWjUxtGD7TBrJaObF-13" value="" style="ellipse;whiteSpace=wrap;html=1;aspect=fixed;fillColor=#60a917;fontColor=#ffffff;strokeColor=#2D7600;" parent="1" vertex="1">
          <mxGeometry x="375" y="335" width="10" height="10" as="geometry" />
        </mxCell>
        <mxCell id="Ih7WWjUxtGD7TBrJaObF-15" value="" style="ellipse;whiteSpace=wrap;html=1;aspect=fixed;fillColor=#60a917;fontColor=#ffffff;strokeColor=#2D7600;" parent="1" vertex="1">
          <mxGeometry x="145" y="334" width="10" height="10" as="geometry" />
        </mxCell>
        <mxCell id="Ih7WWjUxtGD7TBrJaObF-16" value="" style="ellipse;whiteSpace=wrap;html=1;aspect=fixed;fillColor=#60a917;fontColor=#ffffff;strokeColor=#2D7600;" parent="1" vertex="1">
          <mxGeometry x="375" y="375" width="10" height="10" as="geometry" />
        </mxCell>
        <mxCell id="Ih7WWjUxtGD7TBrJaObF-17" value="" style="ellipse;whiteSpace=wrap;html=1;aspect=fixed;fillColor=#60a917;fontColor=#ffffff;strokeColor=#2D7600;" parent="1" vertex="1">
          <mxGeometry x="375" y="296" width="10" height="10" as="geometry" />
        </mxCell>
        <mxCell id="Ih7WWjUxtGD7TBrJaObF-18" value="" style="ellipse;whiteSpace=wrap;html=1;aspect=fixed;fillColor=#60a917;fontColor=#ffffff;strokeColor=#2D7600;" parent="1" vertex="1">
          <mxGeometry x="415" y="335" width="10" height="10" as="geometry" />
        </mxCell>
        <mxCell id="Ih7WWjUxtGD7TBrJaObF-22" value="" style="ellipse;whiteSpace=wrap;html=1;aspect=fixed;fillColor=#60a917;fontColor=#ffffff;strokeColor=#2D7600;" parent="1" vertex="1">
          <mxGeometry x="375" y="565" width="10" height="10" as="geometry" />
        </mxCell>
        <mxCell id="Ih7WWjUxtGD7TBrJaObF-23" value="" style="ellipse;whiteSpace=wrap;html=1;aspect=fixed;fillColor=#60a917;fontColor=#ffffff;strokeColor=#2D7600;" parent="1" vertex="1">
          <mxGeometry x="375" y="104" width="10" height="10" as="geometry" />
        </mxCell>
        <mxCell id="Ih7WWjUxtGD7TBrJaObF-24" value="" style="ellipse;whiteSpace=wrap;html=1;aspect=fixed;fillColor=#60a917;fontColor=#ffffff;strokeColor=#2D7600;" parent="1" vertex="1">
          <mxGeometry x="605" y="334" width="10" height="10" as="geometry" />
        </mxCell>
        <mxCell id="Ih7WWjUxtGD7TBrJaObF-27" value="&lt;span style=&quot;color: light-dark(rgb(0, 0, 0), rgb(0, 204, 0));&quot;&gt;&lt;b&gt;- 512&lt;/b&gt;&lt;/span&gt;" style="text;html=1;align=center;verticalAlign=middle;resizable=0;points=[];autosize=1;strokeColor=none;fillColor=none;" parent="1" vertex="1">
          <mxGeometry x="105" y="345" width="50" height="30" as="geometry" />
        </mxCell>
        <mxCell id="Ih7WWjUxtGD7TBrJaObF-28" value="&lt;span style=&quot;color: light-dark(rgb(0, 0, 0), rgb(0, 204, 0));&quot;&gt;&lt;b&gt;512&lt;/b&gt;&lt;/span&gt;" style="text;html=1;align=center;verticalAlign=middle;resizable=0;points=[];autosize=1;strokeColor=none;fillColor=none;" parent="1" vertex="1">
          <mxGeometry x="610" y="345" width="40" height="30" as="geometry" />
        </mxCell>
        <mxCell id="Ih7WWjUxtGD7TBrJaObF-29" value="&lt;span style=&quot;color: light-dark(rgb(0, 0, 0), rgb(0, 204, 0));&quot;&gt;&lt;b&gt;- 512&lt;/b&gt;&lt;/span&gt;" style="text;html=1;align=center;verticalAlign=middle;resizable=0;points=[];autosize=1;strokeColor=none;fillColor=none;" parent="1" vertex="1">
          <mxGeometry x="330" y="570" width="50" height="30" as="geometry" />
        </mxCell>
        <mxCell id="Ih7WWjUxtGD7TBrJaObF-30" value="&lt;span style=&quot;color: light-dark(rgb(0, 0, 0), rgb(0, 204, 0));&quot;&gt;&lt;b&gt;512&lt;/b&gt;&lt;/span&gt;" style="text;html=1;align=center;verticalAlign=middle;resizable=0;points=[];autosize=1;strokeColor=none;fillColor=none;" parent="1" vertex="1">
          <mxGeometry x="330" y="84" width="40" height="30" as="geometry" />
        </mxCell>
        <mxCell id="Ih7WWjUxtGD7TBrJaObF-31" value="&lt;span style=&quot;color: light-dark(rgb(0, 0, 0), rgb(0, 204, 0));&quot;&gt;&lt;b&gt;75&lt;/b&gt;&lt;/span&gt;" style="text;html=1;align=center;verticalAlign=middle;resizable=0;points=[];autosize=1;strokeColor=none;fillColor=none;" parent="1" vertex="1">
          <mxGeometry x="386" y="336" width="40" height="30" as="geometry" />
        </mxCell>
        <mxCell id="Ih7WWjUxtGD7TBrJaObF-32" value="&lt;span style=&quot;color: light-dark(rgb(0, 0, 0), rgb(0, 204, 0));&quot;&gt;&lt;b&gt;- 75&lt;/b&gt;&lt;/span&gt;" style="text;html=1;align=center;verticalAlign=middle;resizable=0;points=[];autosize=1;strokeColor=none;fillColor=none;" parent="1" vertex="1">
          <mxGeometry x="305" y="336" width="40" height="30" as="geometry" />
        </mxCell>
        <mxCell id="Ih7WWjUxtGD7TBrJaObF-33" value="&lt;span style=&quot;color: light-dark(rgb(0, 0, 0), rgb(0, 204, 0));&quot;&gt;&lt;b&gt;- 75&lt;/b&gt;&lt;/span&gt;" style="text;html=1;align=center;verticalAlign=middle;resizable=0;points=[];autosize=1;strokeColor=none;fillColor=none;" parent="1" vertex="1">
          <mxGeometry x="340" y="380" width="40" height="30" as="geometry" />
        </mxCell>
        <mxCell id="Ih7WWjUxtGD7TBrJaObF-34" value="&lt;span style=&quot;color: light-dark(rgb(0, 0, 0), rgb(0, 204, 0));&quot;&gt;&lt;b&gt;75&lt;/b&gt;&lt;/span&gt;" style="text;html=1;align=center;verticalAlign=middle;resizable=0;points=[];autosize=1;strokeColor=none;fillColor=none;" parent="1" vertex="1">
          <mxGeometry x="340" y="270" width="40" height="30" as="geometry" />
        </mxCell>
        <mxCell id="Ih7WWjUxtGD7TBrJaObF-38" value="" style="endArrow=none;html=1;rounded=0;strokeWidth=3;" parent="1" edge="1">
          <mxGeometry width="50" height="50" relative="1" as="geometry">
            <mxPoint x="540" y="300" as="sourcePoint" />
            <mxPoint x="540" y="110" as="targetPoint" />
          </mxGeometry>
        </mxCell>
        <mxCell id="Ih7WWjUxtGD7TBrJaObF-40" value="" style="endArrow=none;html=1;rounded=0;strokeWidth=3;" parent="1" edge="1">
          <mxGeometry width="50" height="50" relative="1" as="geometry">
            <mxPoint x="220" y="300" as="sourcePoint" />
            <mxPoint x="220" y="110" as="targetPoint" />
          </mxGeometry>
        </mxCell>
        <mxCell id="Ih7WWjUxtGD7TBrJaObF-41" value="&lt;span style=&quot;color: light-dark(rgb(0, 0, 0), rgb(0, 204, 0));&quot;&gt;&lt;b&gt;70 %&lt;/b&gt;&lt;/span&gt;" style="text;html=1;align=center;verticalAlign=middle;resizable=0;points=[];autosize=1;strokeColor=none;fillColor=none;" parent="1" vertex="1">
          <mxGeometry x="195" y="570" width="50" height="30" as="geometry" />
        </mxCell>
        <mxCell id="Ih7WWjUxtGD7TBrJaObF-42" value="&lt;span style=&quot;color: light-dark(rgb(0, 0, 0), rgb(0, 204, 0));&quot;&gt;&lt;b&gt;70 %&lt;/b&gt;&lt;/span&gt;" style="text;html=1;align=center;verticalAlign=middle;resizable=0;points=[];autosize=1;strokeColor=none;fillColor=none;" parent="1" vertex="1">
          <mxGeometry x="520" y="570" width="50" height="30" as="geometry" />
        </mxCell>
        <mxCell id="Ih7WWjUxtGD7TBrJaObF-43" value="&lt;span style=&quot;color: light-dark(rgb(0, 0, 0), rgb(0, 204, 0));&quot;&gt;&lt;b&gt;Hart&lt;/b&gt;&lt;/span&gt;" style="text;html=1;align=center;verticalAlign=middle;resizable=0;points=[];autosize=1;strokeColor=none;fillColor=none;" parent="1" vertex="1">
          <mxGeometry x="155" y="475" width="50" height="30" as="geometry" />
        </mxCell>
        <mxCell id="BVo0kn1WtjxD0ysKhv9Q-7" value="" style="endArrow=none;html=1;rounded=0;strokeWidth=3;" edge="1" parent="1">
          <mxGeometry width="50" height="50" relative="1" as="geometry">
            <mxPoint x="220" y="570" as="sourcePoint" />
            <mxPoint x="220" y="380" as="targetPoint" />
          </mxGeometry>
        </mxCell>
        <mxCell id="BVo0kn1WtjxD0ysKhv9Q-8" value="" style="endArrow=none;html=1;rounded=0;strokeWidth=3;" edge="1" parent="1">
          <mxGeometry width="50" height="50" relative="1" as="geometry">
            <mxPoint x="539.31" y="570" as="sourcePoint" />
            <mxPoint x="539.31" y="380" as="targetPoint" />
          </mxGeometry>
        </mxCell>
        <mxCell id="BVo0kn1WtjxD0ysKhv9Q-9" value="&lt;span style=&quot;color: light-dark(rgb(0, 0, 0), rgb(0, 204, 0));&quot;&gt;&lt;b&gt;70 %&lt;/b&gt;&lt;/span&gt;" style="text;html=1;align=center;verticalAlign=middle;resizable=0;points=[];autosize=1;strokeColor=none;fillColor=none;" vertex="1" parent="1">
          <mxGeometry x="520" y="80" width="50" height="30" as="geometry" />
        </mxCell>
        <mxCell id="BVo0kn1WtjxD0ysKhv9Q-10" value="&lt;span style=&quot;color: light-dark(rgb(0, 0, 0), rgb(0, 204, 0));&quot;&gt;&lt;b&gt;Hart&lt;/b&gt;&lt;/span&gt;" style="text;html=1;align=center;verticalAlign=middle;resizable=0;points=[];autosize=1;strokeColor=none;fillColor=none;" vertex="1" parent="1">
          <mxGeometry x="555" y="200" width="50" height="30" as="geometry" />
        </mxCell>
        <mxCell id="BVo0kn1WtjxD0ysKhv9Q-11" value="&lt;span style=&quot;color: light-dark(rgb(0, 0, 0), rgb(0, 204, 0));&quot;&gt;&lt;b&gt;70 %&lt;/b&gt;&lt;/span&gt;" style="text;html=1;align=center;verticalAlign=middle;resizable=0;points=[];autosize=1;strokeColor=none;fillColor=none;" vertex="1" parent="1">
          <mxGeometry x="195" y="80" width="50" height="30" as="geometry" />
        </mxCell>
        <mxCell id="BVo0kn1WtjxD0ysKhv9Q-12" value="&lt;span style=&quot;color: light-dark(rgb(0, 0, 0), rgb(0, 204, 0));&quot;&gt;&lt;b&gt;Hart&lt;/b&gt;&lt;/span&gt;" style="text;html=1;align=center;verticalAlign=middle;resizable=0;points=[];autosize=1;strokeColor=none;fillColor=none;" vertex="1" parent="1">
          <mxGeometry x="155" y="200" width="50" height="30" as="geometry" />
        </mxCell>
        <mxCell id="BVo0kn1WtjxD0ysKhv9Q-13" value="&lt;span style=&quot;color: light-dark(rgb(0, 0, 0), rgb(0, 204, 0));&quot;&gt;&lt;b&gt;Sanft&lt;/b&gt;&lt;/span&gt;" style="text;html=1;align=center;verticalAlign=middle;resizable=0;points=[];autosize=1;strokeColor=none;fillColor=none;" vertex="1" parent="1">
          <mxGeometry x="245" y="200" width="50" height="30" as="geometry" />
        </mxCell>
        <mxCell id="BVo0kn1WtjxD0ysKhv9Q-14" value="&lt;span style=&quot;color: light-dark(rgb(0, 0, 0), rgb(0, 204, 0));&quot;&gt;&lt;b&gt;Sanft&lt;/b&gt;&lt;/span&gt;" style="text;html=1;align=center;verticalAlign=middle;resizable=0;points=[];autosize=1;strokeColor=none;fillColor=none;" vertex="1" parent="1">
          <mxGeometry x="470" y="200" width="50" height="30" as="geometry" />
        </mxCell>
        <mxCell id="BVo0kn1WtjxD0ysKhv9Q-16" value="&lt;span style=&quot;color: light-dark(rgb(0, 0, 0), rgb(0, 204, 0));&quot;&gt;&lt;b&gt;Sanft&lt;/b&gt;&lt;/span&gt;" style="text;html=1;align=center;verticalAlign=middle;resizable=0;points=[];autosize=1;strokeColor=none;fillColor=none;" vertex="1" parent="1">
          <mxGeometry x="245" y="475" width="50" height="30" as="geometry" />
        </mxCell>
        <mxCell id="BVo0kn1WtjxD0ysKhv9Q-17" value="&lt;span style=&quot;color: light-dark(rgb(0, 0, 0), rgb(0, 204, 0));&quot;&gt;&lt;b&gt;Sanft&lt;/b&gt;&lt;/span&gt;" style="text;html=1;align=center;verticalAlign=middle;resizable=0;points=[];autosize=1;strokeColor=none;fillColor=none;" vertex="1" parent="1">
          <mxGeometry x="470" y="475" width="50" height="30" as="geometry" />
        </mxCell>
        <mxCell id="BVo0kn1WtjxD0ysKhv9Q-18" value="&lt;span style=&quot;color: light-dark(rgb(0, 0, 0), rgb(0, 204, 0));&quot;&gt;&lt;b&gt;Hart&lt;/b&gt;&lt;/span&gt;" style="text;html=1;align=center;verticalAlign=middle;resizable=0;points=[];autosize=1;strokeColor=none;fillColor=none;" vertex="1" parent="1">
          <mxGeometry x="555" y="475" width="50" height="30" as="geometry" />
        </mxCell>
        <mxCell id="BVo0kn1WtjxD0ysKhv9Q-19" value="&lt;div&gt;&lt;span style=&quot;color: light-dark(rgb(0, 0, 0), rgb(0, 204, 0));&quot;&gt;&lt;b&gt;&lt;font style=&quot;font-size: 15px;&quot;&gt;X (horizontal)&lt;/font&gt;&lt;/b&gt;&lt;/span&gt;&lt;/div&gt;" style="text;html=1;align=center;verticalAlign=middle;resizable=0;points=[];autosize=1;strokeColor=none;fillColor=none;" vertex="1" parent="1">
          <mxGeometry x="640" y="325" width="120" height="30" as="geometry" />
        </mxCell>
        <mxCell id="BVo0kn1WtjxD0ysKhv9Q-21" value="&lt;span style=&quot;color: light-dark(rgb(0, 0, 0), rgb(0, 204, 0));&quot;&gt;&lt;b&gt;&lt;font style=&quot;font-size: 15px;&quot;&gt;Y (vertikal)&lt;/font&gt;&lt;/b&gt;&lt;/span&gt;" style="text;html=1;align=center;verticalAlign=middle;resizable=0;points=[];autosize=1;strokeColor=none;fillColor=none;" vertex="1" parent="1">
          <mxGeometry x="330" y="40" width="100" height="30" as="geometry" />
        </mxCell>
      </root>
    </mxGraphModel>
  </diagram>
</mxfile>
